<svg xmlns="http://www.w3.org/2000/svg" xmlns:xlink="http://www.w3.org/1999/xlink" viewBox="0 0 1024 1024"><defs><style>.cls-1{isolation:isolate;}.cls-2{fill:url(#linear-gradient);}.cls-3{fill:url(#linear-gradient-2);}.cls-4,.cls-5{mix-blend-mode:multiply;}.cls-4{fill:url(#linear-gradient-3);}.cls-5{fill:url(#linear-gradient-4);}.cls-6,.cls-7,.cls-8{fill:#15aa74;}.cls-7{font-size:194.45px;font-family:tigo;}.cls-8{font-size:231.18px;font-family:Baloo;}</style><linearGradient id="linear-gradient" x1="451.96" y1="92.64" x2="760.86" y2="685.22" gradientTransform="translate(106.12 -160.7) rotate(10.38)" gradientUnits="userSpaceOnUse"><stop offset="0" stop-color="#15aa74"/><stop offset="0.28" stop-color="#12a66d"/><stop offset="0.69" stop-color="#099c59"/><stop offset="1" stop-color="#009245"/></linearGradient><linearGradient id="linear-gradient-2" x1="276.17" y1="184.27" x2="585.07" y2="776.85" gradientTransform="translate(106.12 -160.7) rotate(10.38)" gradientUnits="userSpaceOnUse"><stop offset="0" stop-color="#15aa74"/><stop offset="1" stop-color="#009245"/></linearGradient><linearGradient id="linear-gradient-3" x1="230.5" y1="398.09" x2="608.75" y2="132.26" gradientTransform="translate(106.12 -160.7) rotate(10.38)" gradientUnits="userSpaceOnUse"><stop offset="0" stop-color="#fff"/><stop offset="0.69" stop-color="#15aa74"/></linearGradient><linearGradient id="linear-gradient-4" x1="582.19" y1="640" x2="383.61" y2="721.95" gradientTransform="translate(106.12 -160.7) rotate(10.38)" gradientUnits="userSpaceOnUse"><stop offset="0" stop-color="#fff"/><stop offset="0.7" stop-color="#999"/></linearGradient></defs><g class="cls-1"><g id="Layer_1" data-name="Layer 1"><path class="cls-2" d="M881.75,424.31c5.9-66.67-8.36-142.46-57.7-225.44C789.07,140,739.31,95.87,684,65.45A380.6,380.6,0,0,0,543.49,21L505.57,228.06a169.47,169.47,0,1,1-48,333.15c.77.88,1.55,1.75,2.34,2.62C601.08,720,863.19,634,881.75,424.31Z"/><path class="cls-3" d="M739.63,655.3s-251.87,60.84-377.8-161.54C315.7,412.29,328,311.19,405,258a168.61,168.61,0,0,1,90.78-29.94C587.88,225.15,666.46,161,683.07,70.35l.89-4.9C559.34-3,400.83,1.5,277.47,91.67,118.6,207.8,75.28,429.46,179,596.72c.8,1.29,1.57,2.59,2.41,3.85C365.67,875.37,708.82,787.86,739.63,655.3Z"/><path class="cls-4" d="M336.59,419.28C328.37,357.48,350.39,295.71,405,258a168.61,168.61,0,0,1,90.78-29.94C587.88,225.15,666.46,161,683.07,70.35l.89-4.9C559.34-3,400.83,1.5,277.47,91.67c-95.34,69.69-149,177.39-154.32,288.52Z"/><path class="cls-5" d="M361.83,493.76a206.74,206.74,0,0,1-25.24-74.48h0s7.14,241.57,237.6,354.94c86.38-16.92,152.69-64.05,165.44-118.92C739.63,655.3,487.76,716.14,361.83,493.76Z"/><path class="cls-6" d="M776.12,820.74c-7.67,0-15.35-.27-23,.09-5.28.25-6.33-1.92-6.72-6.87-1.51-19,4.9-34.54,17.82-48.09a171,171,0,0,0,16.39-20.3c5.94-8.53,7.37-18.42,6.21-28.67-.77-6.77-4.37-10.11-10.43-9.93s-9.72,3.6-10.21,10.22c-.28,3.94.27,8-.42,11.83-.3,1.73-2.68,3.1-4.18,4.57-.22.21-.81.06-1.22.06-16.13-.32-14,2.67-13.66-13.66.39-21.64,11.38-32.28,32-31.76,17.19.43,27.47,10.54,28.86,28,1.36,17-4.29,31.52-14.65,44.47-4.8,6-10.09,11.57-15,17.44-2.4,2.85-5.18,5.63-6.66,9-1.86,4.17-2.55,8.87-3.75,13.35,3.75.53,7.48,1.4,11.24,1.53,7.25.26,14.51.22,21.76.07,3.92-.08,5.6,1.35,5.59,5.43,0,16.36,1,13-12.48,13.28C787.73,820.85,781.92,820.74,776.12,820.74Z"/><text class="cls-7" transform="translate(262.56 955.84)">xygen</text><text class="cls-8" transform="translate(110.82 963.86)">O</text><path class="cls-6" d="M811.15,956.65v-77h4.91l15.54,39.77c3.78,9.71,7.89,20.11,10.86,29.49h.23c-.8-14.63-.8-22.4-.8-35.2V879.62h4.69v77h-4.92L825.2,914.82a284.79,284.79,0,0,1-9.94-28H815c.8,11.88.8,20.34.8,37.37v32.46Z"/><path class="cls-6" d="M886,918.36H865.66v33.95H889v4.34H860.75v-77h26.74V884H865.66V914H886Z"/><path class="cls-6" d="M907.72,883.85h-14.4v-4.23H927v4.23h-14.4v72.8h-4.91Z"/></g></g></svg>